%TF.GenerationSoftware,Altium Limited,Altium Designer,25.8.1 (18)*%
G04 Layer_Physical_Order=4*
G04 Layer_Color=16711680*
%FSLAX45Y45*%
%MOMM*%
%TF.SameCoordinates,5116870C-FF0B-4B11-876B-D4EEA03A695F*%
%TF.FilePolarity,Positive*%
%TF.FileFunction,Copper,L4,Bot,Signal*%
%TF.Part,Single*%
G01*
G75*
%TA.AperFunction,Conductor*%
%ADD10C,0.18000*%
%ADD11C,0.12000*%
%ADD12C,0.18700*%
%ADD14C,0.25400*%
%ADD72C,0.18720*%
%TA.AperFunction,ComponentPad*%
%ADD75C,1.50000*%
%ADD76C,1.60000*%
G04:AMPARAMS|DCode=77|XSize=1.6mm|YSize=1.6mm|CornerRadius=0.4mm|HoleSize=0mm|Usage=FLASHONLY|Rotation=180.000|XOffset=0mm|YOffset=0mm|HoleType=Round|Shape=RoundedRectangle|*
%AMROUNDEDRECTD77*
21,1,1.60000,0.80000,0,0,180.0*
21,1,0.80000,1.60000,0,0,180.0*
1,1,0.80000,-0.40000,0.40000*
1,1,0.80000,0.40000,0.40000*
1,1,0.80000,0.40000,-0.40000*
1,1,0.80000,-0.40000,-0.40000*
%
%ADD77ROUNDEDRECTD77*%
%ADD78O,1.55000X1.05000*%
%ADD79O,1.95000X1.05000*%
%ADD80R,1.15000X1.15000*%
%ADD81C,1.15000*%
%ADD82C,1.70180*%
%TA.AperFunction,ViaPad*%
%ADD83C,0.45000*%
%ADD84C,1.00000*%
%ADD85C,0.50000*%
G36*
X15250000Y8250000D02*
Y250000D01*
Y0D01*
X0D01*
Y8500000D01*
X15250000D01*
Y8250000D01*
D02*
G37*
%LPC*%
G36*
X15000000D02*
X250000D01*
Y3832960D01*
X238000Y3829392D01*
X223986Y3840145D01*
X205036Y3847995D01*
X184700Y3850672D01*
X94700D01*
X74364Y3847995D01*
X60478Y3842243D01*
X112661Y3790060D01*
X94700Y3772100D01*
X112661Y3754139D01*
X60478Y3701957D01*
X74364Y3696205D01*
X94700Y3693528D01*
X184700D01*
X205036Y3696205D01*
X223986Y3704055D01*
X238000Y3714808D01*
X250000Y3711240D01*
Y2968960D01*
X238000Y2965392D01*
X223986Y2976145D01*
X205036Y2983995D01*
X184700Y2986672D01*
X94700D01*
X74364Y2983995D01*
X60478Y2978243D01*
X112661Y2926061D01*
X94700Y2908100D01*
X112661Y2890140D01*
X60478Y2837957D01*
X74364Y2832205D01*
X94700Y2829528D01*
X184700D01*
X205036Y2832205D01*
X223986Y2840055D01*
X238000Y2850808D01*
X250000Y2847240D01*
Y250000D01*
X15000000D01*
Y8250000D01*
D02*
G37*
G36*
X24557Y3806322D02*
X18805Y3792436D01*
X16128Y3772100D01*
X18805Y3751764D01*
X24557Y3737878D01*
X58779Y3772100D01*
X24557Y3806322D01*
D02*
G37*
G36*
Y2942322D02*
X18805Y2928436D01*
X16128Y2908100D01*
X18805Y2887764D01*
X24557Y2873878D01*
X58779Y2908100D01*
X24557Y2942322D01*
D02*
G37*
%LPD*%
G36*
X2870000Y7650000D02*
Y7060000D01*
X2740000D01*
Y7550000D01*
X2620000D01*
X2620000Y7660000D01*
X2860000D01*
X2870000Y7650000D01*
D02*
G37*
D10*
X3213600Y2703193D02*
G03*
X3210000Y2692394I14400J-10800D01*
G01*
X3215454Y2705301D02*
G03*
X3213600Y2703193I12546J-12908D01*
G01*
X6493600Y4643344D02*
G03*
X6490000Y4632544I14400J-10800D01*
G01*
X6495218Y4645218D02*
G03*
X6493600Y4643344I12782J-12674D01*
G01*
X6887456Y5030000D02*
G03*
X6876656Y5026400I0J-18000D01*
G01*
D02*
G03*
X6874782Y5024781I10800J-14401D01*
G01*
X1730000Y2198000D02*
G03*
X1748000Y2180000I18000J0D01*
G01*
X1730000Y2928500D02*
G03*
X1724728Y2941228I-18000J0D01*
G01*
X3025226Y2174774D02*
G03*
X3012544Y2180000I-12681J-12774D01*
G01*
X1640000Y2068000D02*
G03*
X1658000Y2050000I18000J0D01*
G01*
X3022544D02*
G03*
X3035226Y2055226I0J18000D01*
G01*
X5009350Y4619350D02*
X5350000D01*
X3290000Y2900000D02*
X5009350Y4619350D01*
X3290000Y2230000D02*
Y2900000D01*
X3140000Y2080000D02*
X3290000Y2230000D01*
X3140000Y1920000D02*
Y2080000D01*
X6410000Y4710000D02*
X6880000Y5180000D01*
X6410000Y1940000D02*
Y4710000D01*
X6570000Y4600000D02*
X6840000Y4870000D01*
X6570000Y2267226D02*
Y4600000D01*
X6556000Y2216775D02*
Y2253225D01*
Y2216775D02*
X6570000Y2202775D01*
Y1630000D02*
Y2202775D01*
X6556000Y2253225D02*
X6570000Y2267226D01*
X8124400Y5310000D02*
X8600000D01*
X3215454Y3005454D02*
X4990000Y4780000D01*
X3210000Y2220000D02*
Y2692394D01*
X3215454Y2705301D02*
Y3005454D01*
X3120000Y2130000D02*
X3210000Y2220000D01*
X1658000Y2050000D02*
X3022544D01*
X6190000Y1100000D02*
Y1860000D01*
X6260000Y1100000D02*
Y1810000D01*
X4964460Y1330000D02*
X5750000D01*
X4412461Y778000D02*
X4964460Y1330000D01*
X4420000Y710000D02*
X4980000Y1270000D01*
X2234000Y400000D02*
X2612000Y778000D01*
X4412461D01*
X6299022Y2022596D02*
X6310000Y2011618D01*
Y1360000D02*
Y2011618D01*
X6360000Y1280000D02*
Y2020000D01*
X4980000Y1270000D02*
X5750000D01*
X4990219Y1210000D02*
X5750000D01*
X4430218Y650000D02*
X4990219Y1210000D01*
X2488000Y400000D02*
X2798000Y710000D01*
X4420000D01*
X2742000Y400000D02*
X2992000Y650000D01*
X4430218D01*
X6650000Y1440000D02*
Y2120000D01*
X6510000Y1300000D02*
X6650000Y1440000D01*
X6490000Y1690000D02*
Y4632544D01*
X4860000Y990000D02*
X5189600Y660400D01*
X4990000Y4780000D02*
X5350000D01*
X5189600Y660400D02*
X5384800D01*
X6807200D01*
X7994400Y4870000D02*
X7999000Y4874600D01*
X6840000Y4870000D02*
X7994400D01*
X6495218Y4645218D02*
X6874782Y5024781D01*
X6887456Y5030000D02*
X8000000D01*
X6880000Y5180000D02*
X7994400D01*
X7999000Y5184600D01*
X8124400Y5310000D01*
X5400000Y1880000D02*
X5680000D01*
X8620000Y5070000D02*
Y5190000D01*
X1670000Y2995956D02*
X1724728Y2941228D01*
X1748000Y2180000D02*
X3012544D01*
X1730000Y2198000D02*
Y2928500D01*
X1670000Y2995956D02*
Y3000000D01*
X3025226Y2174774D02*
X3060000Y2140000D01*
X3035226Y2055226D02*
X3060000Y2080000D01*
X1640000Y2068000D02*
Y2520000D01*
X1250000Y2910000D02*
X1640000Y2520000D01*
X5440000Y1810000D02*
X5680000D01*
X5910000Y890000D02*
X6110000D01*
D11*
X2339200Y6276030D02*
G03*
X2336800Y6268829I9600J-7200D01*
G01*
X2340272Y6277272D02*
G03*
X2340242Y6277242I8543J-8428D01*
G01*
X2336800Y5888487D02*
G03*
X2340300Y5880017I12000J0D01*
G01*
X2340242Y6277242D02*
G03*
X2339200Y6276030I8558J-8413D01*
G01*
X2988712Y5966312D02*
X2992400Y5970000D01*
X2988712Y5940412D02*
Y5966312D01*
X2971800Y5923499D02*
X2988712Y5940412D01*
X2971800Y5638800D02*
Y5923499D01*
X2946400Y5613400D02*
X2971800Y5638800D01*
X2641500Y5952017D02*
Y5985983D01*
Y5952017D02*
X2641600Y5951917D01*
Y5986083D02*
Y6477000D01*
Y5798229D02*
Y5951917D01*
X2641500Y5985983D02*
X2641600Y5986083D01*
X2385000Y5975000D02*
X2467500D01*
X2540000Y6047500D01*
X2336800Y5888487D02*
Y6268829D01*
X2590800Y6527800D02*
X2641600Y6477000D01*
X2634571Y5791200D02*
X2641600Y5798229D01*
X1040000Y6360000D02*
X1080000Y6320000D01*
X1480000D01*
X1620000Y6180000D01*
Y6100000D02*
Y6180000D01*
X2260000Y3670000D02*
X2280000Y3650000D01*
X2260000Y3670000D02*
Y3910000D01*
X2920000Y6370000D02*
Y7240000D01*
X2590800Y6194771D02*
Y6350000D01*
Y6194771D02*
X2594286Y6191286D01*
X1803400Y7835000D02*
X1873500Y7905100D01*
X1803400Y6400800D02*
Y7835000D01*
Y6400800D02*
X1955800Y6248400D01*
Y6172200D02*
Y6248400D01*
X1879600Y6096000D02*
X1955800Y6172200D01*
X1879600Y5842000D02*
Y6096000D01*
X1676400Y6172200D02*
X1895200D01*
X3581400Y6121400D02*
X3632200Y6172200D01*
X3581400Y5257800D02*
Y6121400D01*
X1879600Y5257800D02*
Y5715000D01*
X2413000Y5334000D02*
Y5588000D01*
X2594286Y6175686D02*
Y6191286D01*
X2463800Y6045200D02*
X2594286Y6175686D01*
X2387600Y6045200D02*
X2463800D01*
X2413000Y5791200D02*
X2634571D01*
X2340300Y5880017D02*
X2357558Y5862758D01*
X2340272Y6277272D02*
X2463800Y6400800D01*
X2438400Y6705600D02*
X2463800Y6680200D01*
Y6400800D02*
Y6680200D01*
D12*
X5716260Y2206525D02*
G03*
X5720000Y2217746I-14960J11220D01*
G01*
X5714523Y2204523D02*
G03*
X5716260Y2206525I-13223J13223D01*
G01*
X5720000Y2217746D02*
Y5230000D01*
X8830000Y5590000D02*
Y5750000D01*
X8680000Y5900000D02*
X8830000Y5750000D01*
X6390000Y5900000D02*
X8680000D01*
X5720000Y5230000D02*
X6390000Y5900000D01*
X5460000Y1950000D02*
X5714523Y2204523D01*
D14*
X11343021Y6962500D02*
G03*
X11327781Y6957420I0J-25400D01*
G01*
X12597219Y6967580D02*
G03*
X12599939Y6969939I-15240J20321D01*
G01*
X11327781Y6957420D02*
G03*
X11325060Y6955060I15240J-20321D01*
G01*
X12581979Y6962500D02*
G03*
X12597219Y6967580I0J25400D01*
G01*
X2447387Y2657387D02*
G03*
X2445080Y2654719I18013J-17909D01*
G01*
X3002612Y3212613D02*
G03*
X3004920Y3215281I-18013J17909D01*
G01*
X2445080Y2654719D02*
G03*
X2440000Y2639479I20320J-15240D01*
G01*
X3004920Y3215281D02*
G03*
X3010000Y3230521I-20320J15240D01*
G01*
X13455000Y4109879D02*
Y4805521D01*
X13764999Y4095000D02*
X14000000Y3860000D01*
X13469879Y4095000D02*
X13764999D01*
X13455000Y4109879D02*
X13469879Y4095000D01*
X13402299Y4858221D02*
X13455000Y4805521D01*
X14160001Y2080000D02*
Y4580000D01*
X14120000Y5000000D02*
X14220000Y4900000D01*
X14160001Y4580000D02*
X14220000Y4640000D01*
Y4900000D01*
X10190000Y5820000D02*
X11325060Y6955060D01*
X11343021Y6962500D02*
X12581979D01*
X12599939Y6969939D02*
X13400000Y7770000D01*
X2142500Y5682500D02*
X2305000D01*
X2447387Y2657387D02*
X3002612Y3212613D01*
X3010000Y3230521D02*
Y3560000D01*
X2440000Y2230000D02*
Y2639479D01*
X3050000Y2290000D02*
Y3060000D01*
X11550000Y1890000D02*
X13439999D01*
X9500000Y3940000D02*
X11550000Y1890000D01*
X9500000Y3940000D02*
Y4240000D01*
X9322000Y4418000D02*
X9500000Y4240000D01*
X9120500Y4418000D02*
X9322000D01*
X11140000Y5500000D02*
X12120000Y4520000D01*
X11030000Y5500000D02*
X11140000D01*
X10680000Y5850000D02*
X11030000Y5500000D01*
X10680000Y5850000D02*
Y5960000D01*
X11600000Y5740000D02*
X12750000Y4590000D01*
X11030000Y5740000D02*
X11600000D01*
X10750000Y6020000D02*
X11030000Y5740000D01*
X5420000Y1650000D02*
X5750000D01*
X5420000Y1580000D02*
X5750000D01*
X5420000Y1510000D02*
X5750000D01*
X4140000Y1440000D02*
X4350000Y1650000D01*
X4140000Y1200000D02*
Y1440000D01*
X4220000Y1200000D02*
Y1450000D01*
X4350000Y1580000D01*
X4300000Y1200000D02*
Y1450000D01*
X4350000Y1500000D01*
X3510000Y2210000D02*
Y2587927D01*
X3170000Y1870000D02*
X3510000Y2210000D01*
X13402299Y4858221D02*
Y4977640D01*
X13446249Y5006250D02*
X13450000Y5010000D01*
X13430910Y5006250D02*
X13446249D01*
X13402299Y4977640D02*
X13430910Y5006250D01*
X14000000Y1850000D02*
Y3860000D01*
X13450000Y4910000D02*
X13850000D01*
X13870000Y5000000D02*
X14120000D01*
X13889999Y4560000D02*
X14120000Y4790000D01*
X13889999Y4520000D02*
Y4560000D01*
X12710000Y4180000D02*
X13180000D01*
X12370000Y4520000D02*
X12710000Y4180000D01*
X12120000Y4520000D02*
X12370000D01*
X8960000Y6040000D02*
X9060000D01*
X8780000Y6220000D02*
X8960000Y6040000D01*
X10290000Y5730000D02*
X10790000Y6230000D01*
X10190000Y5427500D02*
Y5820000D01*
X10790000Y6230000D02*
X13710001D01*
X10007600Y5245100D02*
X10190000Y5427500D01*
X9300000Y5400000D02*
X9620000Y5720000D01*
X9900000D01*
X13080000Y4795321D02*
Y4800000D01*
X13060001Y4775321D02*
X13080000Y4795321D01*
X13060001Y4350000D02*
Y4775321D01*
X9820000Y5160000D02*
X9900000Y5240000D01*
X9290000Y5160000D02*
X9820000D01*
X9460000Y5410000D02*
X9880000D01*
X9300000Y5250000D02*
X9460000Y5410000D01*
X1371600Y5740400D02*
X1422400Y5791200D01*
X1371600Y4826000D02*
Y5740400D01*
X1879600Y5715000D02*
Y5842000D01*
D72*
X6010000Y1730000D02*
Y4810000D01*
X6190000Y2246893D02*
Y4710000D01*
X6170000Y1960000D02*
X6230000Y2020000D01*
X6150966Y1960000D02*
X6170000D01*
X6140000Y1949034D02*
X6150966Y1960000D01*
X6140000Y1467111D02*
Y1949034D01*
X6130000Y1457111D02*
X6140000Y1467111D01*
X6130000Y1450000D02*
Y1457111D01*
X4976370Y1400000D02*
X5750000D01*
X4964009Y1387640D02*
X4976370Y1400000D01*
X4957640Y1387640D02*
X4964009D01*
X4410000Y840000D02*
X4957640Y1387640D01*
X2420000Y840000D02*
X4410000D01*
X1980000Y400000D02*
X2420000Y840000D01*
X6090000Y2146893D02*
X6190000Y2246893D01*
X6090000Y2020000D02*
Y2146893D01*
X6900000Y5420000D02*
X7870000D01*
X6190000Y4710000D02*
X6900000Y5420000D01*
X6790000Y5590000D02*
X7440000D01*
X6010000Y4810000D02*
X6790000Y5590000D01*
D75*
X1174984Y5695316D02*
D03*
Y5441316D02*
D03*
D76*
X2488000Y400000D02*
D03*
X2996000D02*
D03*
X3504000D02*
D03*
X3250000D02*
D03*
X2742000D02*
D03*
X2234000D02*
D03*
X1980000D02*
D03*
X1726000D02*
D03*
D77*
X3758000D02*
D03*
D78*
X539700Y3772100D02*
D03*
Y2908100D02*
D03*
D79*
X139700Y3772100D02*
D03*
Y2908100D02*
D03*
D80*
X2127500Y7905100D02*
D03*
D81*
X1873500D02*
D03*
D82*
X14688820Y6985200D02*
D03*
X13987781D02*
D03*
D83*
X7400000Y4950000D02*
D03*
X7300000D02*
D03*
X7200000D02*
D03*
X7100000D02*
D03*
X7000000D02*
D03*
X6900000Y5100000D02*
D03*
X7000000D02*
D03*
X7100000D02*
D03*
X7200000D02*
D03*
X7300000D02*
D03*
X7400000D02*
D03*
X6500000Y4900000D02*
D03*
X6600000Y5000000D02*
D03*
X6700000Y5100000D02*
D03*
X6800000Y5200000D02*
D03*
X6900000Y5350000D02*
D03*
Y5250000D02*
D03*
X7000000D02*
D03*
Y5350000D02*
D03*
X7400000D02*
D03*
Y5250000D02*
D03*
X7300000D02*
D03*
Y5350000D02*
D03*
X7200000Y5250000D02*
D03*
Y5350000D02*
D03*
X7100000D02*
D03*
Y5250000D02*
D03*
X6200000Y4900000D02*
D03*
X6300000Y5000000D02*
D03*
X6400000Y5100000D02*
D03*
X6500000Y5200000D02*
D03*
X6600000Y5300000D02*
D03*
X6700000Y5400000D02*
D03*
X6800000Y5500000D02*
D03*
X6900000D02*
D03*
X7000000D02*
D03*
X7100000D02*
D03*
X7200000D02*
D03*
X7300000D02*
D03*
X7400000D02*
D03*
X6950000Y5650000D02*
D03*
X6850000D02*
D03*
X6750000D02*
D03*
X7350000D02*
D03*
X7250000D02*
D03*
X7150000D02*
D03*
X7050000D02*
D03*
X7250000Y5750000D02*
D03*
X7350000D02*
D03*
X7450000D02*
D03*
X6850000D02*
D03*
X6950000D02*
D03*
X7050000D02*
D03*
X7150000D02*
D03*
X6750000D02*
D03*
X6650000D02*
D03*
X6550000D02*
D03*
X6450000Y5650000D02*
D03*
X6550000D02*
D03*
X6650000D02*
D03*
Y5550000D02*
D03*
X6550000D02*
D03*
X6450000D02*
D03*
X6350000D02*
D03*
X5950000Y4850000D02*
D03*
Y4950000D02*
D03*
X6050000D02*
D03*
X6150000Y5050000D02*
D03*
X6050000D02*
D03*
X5950000D02*
D03*
Y5150000D02*
D03*
X6050000D02*
D03*
X6150000D02*
D03*
X6250000D02*
D03*
X6050000Y5250000D02*
D03*
X6150000D02*
D03*
X6250000D02*
D03*
X6350000D02*
D03*
X6150000Y5350000D02*
D03*
X6250000D02*
D03*
X6350000D02*
D03*
X6450000D02*
D03*
X6250000Y5450000D02*
D03*
X6350000D02*
D03*
X6450000D02*
D03*
X6550000D02*
D03*
X6300000Y3660000D02*
D03*
Y3560000D02*
D03*
Y3450000D02*
D03*
Y3250000D02*
D03*
Y3350000D02*
D03*
Y3000000D02*
D03*
Y2850000D02*
D03*
X6302852Y4570683D02*
D03*
Y4470683D02*
D03*
Y4360683D02*
D03*
Y4060684D02*
D03*
Y4160683D02*
D03*
Y4260683D02*
D03*
Y3950683D02*
D03*
Y3750683D02*
D03*
Y3850683D02*
D03*
X6100000Y3660000D02*
D03*
Y3560000D02*
D03*
Y3450000D02*
D03*
Y3250000D02*
D03*
Y3350000D02*
D03*
Y3000000D02*
D03*
Y2850000D02*
D03*
Y4570000D02*
D03*
Y4470000D02*
D03*
Y4360000D02*
D03*
Y4060000D02*
D03*
Y4160000D02*
D03*
Y4260000D02*
D03*
Y3950000D02*
D03*
Y3750000D02*
D03*
Y3850000D02*
D03*
X5940000Y4470000D02*
D03*
Y4570000D02*
D03*
Y4370000D02*
D03*
Y4060000D02*
D03*
Y4160000D02*
D03*
Y4260000D02*
D03*
Y3960000D02*
D03*
Y3550000D02*
D03*
Y3850000D02*
D03*
Y3750000D02*
D03*
Y3650000D02*
D03*
Y3450000D02*
D03*
Y3350000D02*
D03*
Y3250000D02*
D03*
Y3000000D02*
D03*
Y2850000D02*
D03*
Y2650000D02*
D03*
X6100000Y2550000D02*
D03*
Y2450000D02*
D03*
Y2350000D02*
D03*
Y2250000D02*
D03*
X6250000D02*
D03*
Y2350000D02*
D03*
Y2450000D02*
D03*
Y2550000D02*
D03*
X6350000D02*
D03*
Y2450000D02*
D03*
Y2350000D02*
D03*
Y2250000D02*
D03*
X2750502Y2094035D02*
D03*
X2845405D02*
D03*
X2655599D02*
D03*
X5350000Y4620000D02*
D03*
X2845000Y2255000D02*
D03*
X2750000D02*
D03*
X2657500D02*
D03*
X13643600Y5080000D02*
D03*
X9472500Y7895000D02*
D03*
X6600000Y2235000D02*
D03*
X6740000Y2225000D02*
D03*
X5575000Y1117500D02*
D03*
X5588088Y2224134D02*
D03*
X6821218Y1816318D02*
D03*
X6776249Y1139300D02*
D03*
X6457865Y895837D02*
D03*
X6537045Y895955D02*
D03*
X13805000Y2110000D02*
D03*
Y2042500D02*
D03*
X13802499Y1975000D02*
D03*
X13739999D02*
D03*
X13742500Y2042500D02*
D03*
Y2110000D02*
D03*
X13537500Y4782500D02*
D03*
Y4715000D02*
D03*
X13535001Y4647500D02*
D03*
X14000000Y4232500D02*
D03*
X13182500Y4505000D02*
D03*
X13322501Y4487500D02*
D03*
X13597501Y4647500D02*
D03*
X13600000Y4715000D02*
D03*
Y4782500D02*
D03*
X9120100Y7775837D02*
D03*
X9350000Y7776596D02*
D03*
X9465100Y7584900D02*
D03*
X9391155Y7033300D02*
D03*
X9512500Y7102500D02*
D03*
X9465100Y7055100D02*
D03*
X9559702Y7149702D02*
D03*
X9530798Y7519203D02*
D03*
X14192500Y1932500D02*
D03*
X14344400Y1551201D02*
D03*
X14166600Y1546200D02*
D03*
X13995000Y1540000D02*
D03*
X13635001Y1860000D02*
D03*
X13256300Y1940229D02*
D03*
X9557500Y4795000D02*
D03*
X9386400Y4893000D02*
D03*
X9660000Y5280000D02*
D03*
X9312500Y5575000D02*
D03*
X9647500Y5570000D02*
D03*
X9202500Y5595000D02*
D03*
X9290000Y5027500D02*
D03*
X8392500Y5257500D02*
D03*
X8212500D02*
D03*
X2651870Y4580000D02*
D03*
X2649370Y4402500D02*
D03*
X2652500Y4230000D02*
D03*
X9082500Y5595000D02*
D03*
X8360000Y5802500D02*
D03*
X8360000Y5625000D02*
D03*
X8587500Y7277500D02*
D03*
X8393430Y7384700D02*
D03*
X1671470Y5932799D02*
D03*
X2127500Y8080000D02*
D03*
X2525000Y6385000D02*
D03*
X2327500Y6357500D02*
D03*
X2395000Y6190000D02*
D03*
X2687500Y5972500D02*
D03*
X2385000Y5975000D02*
D03*
X2540000Y6047500D02*
D03*
X2957930Y6122600D02*
D03*
X3037500Y5825000D02*
D03*
X2305300Y5342070D02*
D03*
X2142500Y5682500D02*
D03*
X2305000D02*
D03*
X1975100Y5347070D02*
D03*
X1581401Y5319370D02*
D03*
X2765000Y4490000D02*
D03*
Y4310000D02*
D03*
X3427500Y2610000D02*
D03*
X1151505Y3620430D02*
D03*
X798506Y2714464D02*
D03*
X1028233Y2877635D02*
D03*
X1997700Y2655901D02*
D03*
X3112600Y2770000D02*
D03*
X2947500D02*
D03*
X2782000D02*
D03*
X2630000D02*
D03*
X2960000Y2410000D02*
D03*
X2450000Y1990000D02*
D03*
X2308700Y1592000D02*
D03*
X2428400Y1779471D02*
D03*
X3140100Y1788400D02*
D03*
X6858000Y886800D02*
D03*
X7129200Y1554300D02*
D03*
X6993200Y1735800D02*
D03*
Y1880800D02*
D03*
X5430000Y2100000D02*
D03*
X5952000Y2437500D02*
D03*
X4344330Y590163D02*
D03*
X4470000Y587500D02*
D03*
X4600000D02*
D03*
X5492300Y944000D02*
D03*
X5320000Y810000D02*
D03*
X5670000Y850000D02*
D03*
X6007800Y553800D02*
D03*
X6185600D02*
D03*
X6380000Y560000D02*
D03*
X6388101Y805100D02*
D03*
X6722900Y804900D02*
D03*
X7888900Y726500D02*
D03*
X7889100Y1455000D02*
D03*
X7506200Y1757600D02*
D03*
X7513000Y1931400D02*
D03*
X7807800Y2066200D02*
D03*
X7840000Y2240000D02*
D03*
X6230000Y2020000D02*
D03*
X6130000Y1450000D02*
D03*
X5750000Y1400000D02*
D03*
X6090000Y2020000D02*
D03*
X6150000D02*
D03*
X6299022Y2022596D02*
D03*
X6310000Y1360000D02*
D03*
X5750000Y1330000D02*
D03*
X6360000Y2020000D02*
D03*
Y1280000D02*
D03*
X5750000Y1270000D02*
D03*
X6650000Y2120000D02*
D03*
X6510000Y1300000D02*
D03*
X5750000Y1210000D02*
D03*
Y1650000D02*
D03*
X5420000D02*
D03*
X5750000Y1580000D02*
D03*
X5420000D02*
D03*
X5750000Y1510000D02*
D03*
X5420000D02*
D03*
X4350000Y1650000D02*
D03*
X4140000Y1200000D02*
D03*
X4350000Y1580000D02*
D03*
X4220000Y1200000D02*
D03*
X4350000Y1500000D02*
D03*
X4300000Y1200000D02*
D03*
X8980000Y6750000D02*
D03*
Y6650000D02*
D03*
Y6550000D02*
D03*
X8880000D02*
D03*
Y6650000D02*
D03*
Y6750000D02*
D03*
X9180000Y6650000D02*
D03*
Y6550000D02*
D03*
X9080000D02*
D03*
Y6650000D02*
D03*
X9280000Y6750000D02*
D03*
Y6650000D02*
D03*
Y6550000D02*
D03*
X9380000D02*
D03*
Y6650000D02*
D03*
Y6750000D02*
D03*
Y6850000D02*
D03*
X9280000D02*
D03*
X8980000D02*
D03*
X8880000D02*
D03*
X2220000Y2590000D02*
D03*
X2160000Y1980000D02*
D03*
X8570000Y8070000D02*
D03*
X1040000Y6360000D02*
D03*
X4860000Y990000D02*
D03*
X6807200Y660400D02*
D03*
X8830000Y5590000D02*
D03*
X5460000Y1950000D02*
D03*
X8600000Y5310000D02*
D03*
X7870000Y5420000D02*
D03*
X7440000Y5590000D02*
D03*
X8620000Y5190000D02*
D03*
Y5070000D02*
D03*
X6010000Y1670000D02*
D03*
Y1730000D02*
D03*
X7999000Y5184600D02*
D03*
X6410000Y1940000D02*
D03*
X7999000Y4874600D02*
D03*
X8000000Y5030000D02*
D03*
X6490000Y1690000D02*
D03*
X5350000Y4780000D02*
D03*
X6570000Y1630000D02*
D03*
X3510000Y2587927D02*
D03*
X3120000Y2130000D02*
D03*
X3140000Y1920000D02*
D03*
X13439999Y1890000D02*
D03*
X9120500Y4418000D02*
D03*
X13450000Y5010000D02*
D03*
X10680000Y5960000D02*
D03*
X9060000Y6040000D02*
D03*
X10750000Y6020000D02*
D03*
X10290000Y5730000D02*
D03*
X13400000Y7770000D02*
D03*
X13180000Y4180000D02*
D03*
X13080000Y4800000D02*
D03*
X13060001Y4350000D02*
D03*
X12750000Y4590000D02*
D03*
X8780000Y6220000D02*
D03*
X9030000D02*
D03*
X10007600Y5245100D02*
D03*
X13710001Y6230000D02*
D03*
X10010000Y5720000D02*
D03*
X9900000Y5240000D02*
D03*
X9290000Y5160000D02*
D03*
X9880000Y5410000D02*
D03*
X9300000Y5250000D02*
D03*
X9900000Y5720000D02*
D03*
X9300000Y5400000D02*
D03*
X13870000Y5000000D02*
D03*
X14160001Y2080000D02*
D03*
X14000000Y1850000D02*
D03*
X13889999Y4520000D02*
D03*
X14120000Y4790000D02*
D03*
X13450000Y4910000D02*
D03*
X13850000D02*
D03*
X2280000Y3650000D02*
D03*
X2260000Y3910000D02*
D03*
X2650000Y7570000D02*
D03*
X2710000D02*
D03*
Y7630000D02*
D03*
X2650000D02*
D03*
X2920000Y7240000D02*
D03*
X2770000Y7080000D02*
D03*
X2830000D02*
D03*
Y7140000D02*
D03*
X2770000D02*
D03*
X2920000Y6370000D02*
D03*
X2590800Y6350000D02*
D03*
X1620000Y6100000D02*
D03*
X1422400Y5791200D02*
D03*
X1371600Y4826000D02*
D03*
X3010000Y3560000D02*
D03*
X2440000Y2230000D02*
D03*
X3050000Y3060000D02*
D03*
X3170000Y1870000D02*
D03*
X3050000Y2290000D02*
D03*
X3060000Y2140000D02*
D03*
X1670000Y3000000D02*
D03*
X3060000Y2080000D02*
D03*
X1250000Y2910000D02*
D03*
X5400000Y1880000D02*
D03*
X5680000D02*
D03*
X6190000Y1860000D02*
D03*
Y1100000D02*
D03*
X5440000Y1810000D02*
D03*
X5680000D02*
D03*
X6260000D02*
D03*
Y1100000D02*
D03*
X6110000Y890000D02*
D03*
X5910000D02*
D03*
X1676400Y6172200D02*
D03*
X1895200D02*
D03*
X3632200D02*
D03*
X3581400Y5257800D02*
D03*
X1879600D02*
D03*
Y5842000D02*
D03*
Y5715000D02*
D03*
X2413000Y5334000D02*
D03*
Y5588000D02*
D03*
X2992400Y5970000D02*
D03*
X2946400Y5613400D02*
D03*
X2413000Y5791200D02*
D03*
X2387600Y6045200D02*
D03*
X2590800Y6527800D02*
D03*
X2438400Y6705600D02*
D03*
X2357558Y5862758D02*
D03*
D84*
X11125000Y8375000D02*
D03*
Y8125000D02*
D03*
X8375000Y2625000D02*
D03*
Y2875000D02*
D03*
X8625000D02*
D03*
X9375000Y4125000D02*
D03*
X11125000Y5625000D02*
D03*
X9375000Y3875000D02*
D03*
X9625000Y4125000D02*
D03*
X9375000Y3125000D02*
D03*
Y3375000D02*
D03*
Y3625000D02*
D03*
X8875000Y2875000D02*
D03*
X9125000D02*
D03*
X9375000D02*
D03*
X8375000Y1875000D02*
D03*
Y2125000D02*
D03*
Y2375000D02*
D03*
Y1125000D02*
D03*
Y1375000D02*
D03*
Y1625000D02*
D03*
Y375000D02*
D03*
Y625000D02*
D03*
Y875000D02*
D03*
X9875000Y4125000D02*
D03*
Y4375000D02*
D03*
Y4625000D02*
D03*
X10125000D02*
D03*
X10375000D02*
D03*
X10625000D02*
D03*
X10875000D02*
D03*
X11125000D02*
D03*
Y5375000D02*
D03*
Y5125000D02*
D03*
Y4875000D02*
D03*
Y6125000D02*
D03*
Y5875000D02*
D03*
Y6875000D02*
D03*
Y6625000D02*
D03*
Y6375000D02*
D03*
Y7625000D02*
D03*
Y7375000D02*
D03*
Y7125000D02*
D03*
Y7875000D02*
D03*
X15125000Y2875000D02*
D03*
Y2625000D02*
D03*
Y2375000D02*
D03*
Y2125000D02*
D03*
Y1625000D02*
D03*
Y1375000D02*
D03*
Y1125000D02*
D03*
Y875000D02*
D03*
Y625000D02*
D03*
Y375000D02*
D03*
Y125000D02*
D03*
Y8125000D02*
D03*
Y7875000D02*
D03*
Y7625000D02*
D03*
Y7125000D02*
D03*
Y6875000D02*
D03*
Y6625000D02*
D03*
Y6375000D02*
D03*
Y6125000D02*
D03*
Y5875000D02*
D03*
Y5625000D02*
D03*
Y5375000D02*
D03*
Y5125000D02*
D03*
Y4875000D02*
D03*
Y4375000D02*
D03*
Y4125000D02*
D03*
Y3875000D02*
D03*
Y3625000D02*
D03*
Y3375000D02*
D03*
Y3125000D02*
D03*
X125000Y2750000D02*
D03*
Y2500000D02*
D03*
Y2250000D02*
D03*
Y2000000D02*
D03*
Y1750000D02*
D03*
Y1500000D02*
D03*
Y1250000D02*
D03*
Y1000000D02*
D03*
Y750000D02*
D03*
Y475000D02*
D03*
Y8125000D02*
D03*
Y7875000D02*
D03*
Y7625000D02*
D03*
Y7375000D02*
D03*
Y7125000D02*
D03*
Y6875000D02*
D03*
Y6625000D02*
D03*
Y6375000D02*
D03*
Y6125000D02*
D03*
Y5875000D02*
D03*
Y5625000D02*
D03*
Y5375000D02*
D03*
Y5125000D02*
D03*
Y4875000D02*
D03*
Y4625000D02*
D03*
Y4375000D02*
D03*
Y4125000D02*
D03*
Y3625000D02*
D03*
Y3375000D02*
D03*
Y3125000D02*
D03*
Y125000D02*
D03*
X375000D02*
D03*
X625000D02*
D03*
X875000D02*
D03*
X1125000D02*
D03*
X1375000D02*
D03*
X1625000D02*
D03*
X1875000D02*
D03*
X2125000D02*
D03*
X2375000D02*
D03*
X2625000D02*
D03*
X2875000D02*
D03*
X3125000D02*
D03*
X3375000D02*
D03*
X3625000D02*
D03*
X3875000D02*
D03*
X4125000D02*
D03*
X4375000D02*
D03*
X4625000D02*
D03*
X4875000D02*
D03*
X5125000D02*
D03*
X5375000D02*
D03*
X5625000D02*
D03*
X5875000D02*
D03*
X6125000D02*
D03*
X6375000D02*
D03*
X6625000D02*
D03*
X6875000D02*
D03*
X7125000D02*
D03*
X7375000D02*
D03*
X7625000D02*
D03*
X7875000D02*
D03*
X8125000D02*
D03*
X8375000D02*
D03*
X8625000D02*
D03*
X8875000D02*
D03*
X9125000D02*
D03*
X9375000D02*
D03*
X9625000D02*
D03*
X9875000D02*
D03*
X10125000D02*
D03*
X10375000D02*
D03*
X10625000D02*
D03*
X10875000D02*
D03*
X11125000D02*
D03*
X11375000D02*
D03*
X11625000D02*
D03*
X11875000D02*
D03*
X12125000D02*
D03*
X12375000D02*
D03*
X12625000D02*
D03*
X12875000D02*
D03*
X13125000D02*
D03*
X13375000D02*
D03*
X13625000D02*
D03*
X13875000D02*
D03*
X14125000D02*
D03*
X14375000D02*
D03*
X14625000D02*
D03*
X14875000D02*
D03*
X15125000Y8375000D02*
D03*
X14875000D02*
D03*
X14625000D02*
D03*
X14375000D02*
D03*
X14125000D02*
D03*
X13875000D02*
D03*
X13625000D02*
D03*
X13375000D02*
D03*
X13125000D02*
D03*
X12875000D02*
D03*
X12625000D02*
D03*
X12375000D02*
D03*
X12125000D02*
D03*
X11875000D02*
D03*
X11625000D02*
D03*
X11375000D02*
D03*
X10875000D02*
D03*
X10625000D02*
D03*
X10375000D02*
D03*
X10125000D02*
D03*
X9875000D02*
D03*
X9625000D02*
D03*
X9375000D02*
D03*
X9125000D02*
D03*
X8875000D02*
D03*
X8625000D02*
D03*
X8375000D02*
D03*
X8125000D02*
D03*
X7875000D02*
D03*
X7625000D02*
D03*
X7375000D02*
D03*
X7125000D02*
D03*
X6875000D02*
D03*
X6625000D02*
D03*
X6375000D02*
D03*
X6125000D02*
D03*
X5875000D02*
D03*
X5625000D02*
D03*
X5375000D02*
D03*
X5125000D02*
D03*
X4875000D02*
D03*
X4625000D02*
D03*
X4375000D02*
D03*
X4125000D02*
D03*
X3875000D02*
D03*
X3625000D02*
D03*
X3375000D02*
D03*
X3125000D02*
D03*
X2875000D02*
D03*
X2625000D02*
D03*
X2375000D02*
D03*
X2125000D02*
D03*
X1875000D02*
D03*
X1625000D02*
D03*
X1375000D02*
D03*
X1125000D02*
D03*
X875000D02*
D03*
X625000D02*
D03*
X375000D02*
D03*
X125000D02*
D03*
D85*
X9055800Y5350000D02*
D03*
X8955800D02*
D03*
Y5250000D02*
D03*
X9055800D02*
D03*
Y5150000D02*
D03*
X8955800D02*
D03*
X8855800Y5350000D02*
D03*
Y5250000D02*
D03*
Y5150000D02*
D03*
X2127500Y6142800D02*
D03*
X2205000Y6012800D02*
D03*
X2050000D02*
D03*
X2127500Y5882800D02*
D03*
%TF.MD5,a55d856376c6fdd7d07786a63d753c41*%
M02*
