%TF.GenerationSoftware,Altium Limited,Altium Designer,25.8.1 (18)*%
G04 Layer_Color=16711935*
%FSLAX45Y45*%
%MOMM*%
%TF.SameCoordinates,5116870C-FF0B-4B11-876B-D4EEA03A695F*%
%TF.FilePolarity,Negative*%
%TF.FileFunction,Soldermask,Bot*%
%TF.Part,Single*%
G01*
G75*
%TA.AperFunction,ComponentPad*%
%ADD80R,1.15000X1.15000*%
%ADD81C,1.15000*%
%ADD82C,1.70180*%
%ADD128C,1.55080*%
%ADD129C,1.65080*%
G04:AMPARAMS|DCode=130|XSize=1.6508mm|YSize=1.6508mm|CornerRadius=0.4254mm|HoleSize=0mm|Usage=FLASHONLY|Rotation=180.000|XOffset=0mm|YOffset=0mm|HoleType=Round|Shape=RoundedRectangle|*
%AMROUNDEDRECTD130*
21,1,1.65080,0.80000,0,0,180.0*
21,1,0.80000,1.65080,0,0,180.0*
1,1,0.85080,-0.40000,0.40000*
1,1,0.85080,0.40000,0.40000*
1,1,0.85080,0.40000,-0.40000*
1,1,0.85080,-0.40000,-0.40000*
%
%ADD130ROUNDEDRECTD130*%
%ADD131O,1.60080X1.10080*%
%ADD132O,2.00080X1.10080*%
%TA.AperFunction,ViaPad*%
%ADD133C,0.55080*%
G36*
X15250000Y8250000D02*
Y250000D01*
Y0D01*
X0D01*
Y8500000D01*
X15250000D01*
Y8250000D01*
D02*
G37*
%LPC*%
G36*
X15000000D02*
X250000D01*
Y250000D01*
X15000000D01*
Y8250000D01*
D02*
G37*
%LPD*%
D80*
X2127500Y7905100D02*
D03*
D81*
X1873500D02*
D03*
D82*
X14688820Y6985200D02*
D03*
X13987781D02*
D03*
D128*
X1174984Y5695316D02*
D03*
Y5441316D02*
D03*
D129*
X2488000Y400000D02*
D03*
X2996000D02*
D03*
X3504000D02*
D03*
X3250000D02*
D03*
X2742000D02*
D03*
X2234000D02*
D03*
X1980000D02*
D03*
X1726000D02*
D03*
D130*
X3758000D02*
D03*
D131*
X539700Y3772100D02*
D03*
Y2908100D02*
D03*
D132*
X139700Y3772100D02*
D03*
Y2908100D02*
D03*
D133*
X9055800Y5350000D02*
D03*
X8955800D02*
D03*
Y5250000D02*
D03*
X9055800D02*
D03*
Y5150000D02*
D03*
X8955800D02*
D03*
X8855800Y5350000D02*
D03*
Y5250000D02*
D03*
Y5150000D02*
D03*
X2127500Y6142800D02*
D03*
X2205000Y6012800D02*
D03*
X2050000D02*
D03*
X2127500Y5882800D02*
D03*
%TF.MD5,ef136611af553427d2be7f42de9291ff*%
M02*
